HIERARCHY
ROOT Hips
{
	OFFSET -0.001795 -0.223333 0.028219
	CHANNELS 6 Xposition Yposition Zposition Zrotation Yrotation Xrotation 
	JOINT LeftUpLeg
	{
		OFFSET 0.069520 -0.091406 -0.006815
		CHANNELS 3 Zrotation Yrotation Xrotation
		JOINT LeftLeg
		{
			OFFSET 0.034277 -0.375199 -0.004496
			CHANNELS 3 Zrotation Yrotation Xrotation
			JOINT LeftFoot
			{
				OFFSET -0.013596 -0.397961 -0.043693
				CHANNELS 3 Zrotation Yrotation Xrotation
				JOINT LeftToe
				{
					OFFSET 0.026358 -0.055791 0.119288
					CHANNELS 3 Zrotation Yrotation Xrotation
					End Site
					{
						OFFSET 0.000000 0.000000 0.000000
					}
				}
			}
		}
	}
	JOINT RightUpLeg
	{
		OFFSET -0.067670 -0.090522 -0.004320
		CHANNELS 3 Zrotation Yrotation Xrotation
		JOINT RightLeg
		{
			OFFSET -0.038290 -0.382569 -0.008850
			CHANNELS 3 Zrotation Yrotation Xrotation
			JOINT RightFoot
			{
				OFFSET 0.015774 -0.398415 -0.042312
				CHANNELS 3 Zrotation Yrotation Xrotation
				JOINT RightToe
				{
					OFFSET -0.025372 -0.048144 0.123348
					CHANNELS 3 Zrotation Yrotation Xrotation
					End Site
					{
						OFFSET 0.000000 0.000000 0.000000
					}
				}
			}
		}
	}
	JOINT Spine
	{
		OFFSET -0.002533 0.108963 -0.026696
		CHANNELS 3 Zrotation Yrotation Xrotation
		JOINT Spine1
		{
			OFFSET 0.005487 0.135180 0.001092
			CHANNELS 3 Zrotation Yrotation Xrotation
			JOINT Spine2
			{
				OFFSET 0.001457 0.052922 0.025425
				CHANNELS 3 Zrotation Yrotation Xrotation
				JOINT Neck
				{
					OFFSET -0.002778 0.213870 -0.042857
					CHANNELS 3 Zrotation Yrotation Xrotation
					JOINT Head
					{
						OFFSET 0.005152 0.064970 0.051349
						CHANNELS 3 Zrotation Yrotation Xrotation
						End Site
						{
							OFFSET 0.000000 0.000000 0.000000
						}
					}
				}
				JOINT LeftShoulder
				{
					OFFSET 0.078845 0.121749 -0.034090
					CHANNELS 3 Zrotation Yrotation Xrotation
					JOINT LeftArm
					{
						OFFSET 0.090977 0.030469 -0.008868
						CHANNELS 3 Zrotation Yrotation Xrotation
						JOINT LeftForeArm
						{
							OFFSET 0.259612 -0.012772 -0.027456
							CHANNELS 3 Zrotation Yrotation Xrotation
							JOINT LeftHand
							{
								OFFSET 0.249234 0.008986 -0.001171
								CHANNELS 3 Zrotation Yrotation Xrotation
								End Site
								{
									OFFSET 0.000000 0.000000 0.000000
								}
							}
						}
					}
				}
				JOINT RightShoulder
				{
					OFFSET -0.081759 0.118833 -0.038615
					CHANNELS 3 Zrotation Yrotation Xrotation
					JOINT RightArm
					{
						OFFSET -0.096012 0.032551 -0.009143
						CHANNELS 3 Zrotation Yrotation Xrotation
						JOINT RightForeArm
						{
							OFFSET -0.253742 -0.013329 -0.021401
							CHANNELS 3 Zrotation Yrotation Xrotation
							JOINT RightHand
							{
								OFFSET -0.255298 0.007772 -0.005559
								CHANNELS 3 Zrotation Yrotation Xrotation
								End Site
								{
									OFFSET 0.000000 0.000000 0.000000
								}
							}
						}
					}
				}
			}
		}
	}
}
MOTION
Frames: 13
Frame Time: 0.050000
0.000097 0.959174 -0.083866 -0.387981 1.498671 11.671469 6.325727 -0.786053 -14.230047 1.083847 -0.104536 -0.165041 -0.309484 4.770959 13.604846 0.000000 0.000000 0.000000 -4.307246 1.234616 -16.923521 -5.342322 0.847113 3.425269 2.342487 -1.478101 15.372363 0.000000 0.000000 0.000000 3.446724 -0.420236 3.468434 1.665637 -0.910969 2.735310 -8.779365 2.495157 4.285356 11.315693 -10.030341 2.799241 0.000000 0.000000 0.000000 20.112482 -5.316702 3.423433 -11.046836 -37.555651 -0.070152 126.762020 -32.876800 -59.072407 0.000000 0.000000 0.000000 -10.372993 -2.757971 -0.366622 25.625917 31.683436 3.650385 -142.133093 38.053096 -75.880760 0.000000 0.000000 0.000000 
0.000639 0.957152 -0.082743 -0.436720 1.281467 11.318607 6.574854 -0.756831 -14.314858 1.308081 -0.159561 0.522854 -0.966797 3.708246 13.670119 0.000000 0.000000 0.000000 -4.421196 1.238949 -17.184101 -4.664611 0.827745 4.318049 1.707218 -2.584815 15.097539 0.000000 0.000000 0.000000 3.531348 -0.510486 4.703504 1.774517 -0.830331 0.152252 -8.815765 2.174442 5.026640 11.121606 -8.760067 -1.135524 0.000000 0.000000 0.000000 11.240666 -7.721760 3.221756 -26.946683 -46.800417 5.652140 130.033735 -31.411601 -58.799736 0.000000 0.000000 0.000000 -3.475219 -0.478893 -0.010850 43.247074 39.629984 10.751876 -143.949244 36.457631 -76.175185 0.000000 0.000000 0.000000 
0.001314 0.954501 -0.080325 0.143704 1.127713 11.223632 5.981783 -0.805402 -14.414912 1.344403 -0.190448 1.097784 -1.043959 3.399805 13.168963 0.000000 0.000000 0.000000 -5.349281 1.091819 -16.166624 -3.888508 0.673002 3.700004 1.104071 -2.934415 12.860261 0.000000 0.000000 0.000000 3.548092 -0.450559 3.920051 1.213347 -0.538420 -0.581534 -8.625739 1.232647 5.049439 9.342867 -6.578589 -4.291145 0.000000 0.000000 0.000000 4.593179 -10.723122 3.692584 -43.507453 -52.314466 14.146974 133.431071 -32.735754 -63.522567 0.000000 0.000000 0.000000 0.994080 1.874705 0.663028 61.017173 43.097374 18.933050 -148.939143 35.759633 -83.854385 0.000000 0.000000 0.000000 
0.002065 0.951343 -0.076419 0.409982 0.717427 10.723977 5.643445 -0.763258 -13.100334 1.274749 -0.150311 0.371144 -0.718326 3.570639 12.261746 0.000000 0.000000 0.000000 -6.070882 1.025350 -16.126665 -3.095717 0.597431 4.192843 0.880005 -3.451038 12.932826 0.000000 0.000000 0.000000 3.519797 -0.383529 3.128735 1.425086 -0.619013 -0.941115 -9.377548 1.267691 4.399194 9.659244 -6.468629 -5.735799 0.000000 0.000000 0.000000 1.080208 -13.531420 4.534357 -53.780049 -53.644391 19.644456 134.091679 -34.622972 -67.469897 0.000000 0.000000 0.000000 2.209748 4.661944 1.686462 71.761341 44.965738 25.190543 -150.336443 35.753331 -86.546471 0.000000 0.000000 0.000000 
0.002624 0.949832 -0.071604 0.702439 -0.119230 10.081165 5.361568 -0.728753 -12.374633 0.994939 -0.156001 1.182358 -0.197370 4.083708 11.515189 0.000000 0.000000 0.000000 -5.609261 1.049599 -15.447967 -4.095306 0.738864 4.221694 0.543505 -4.095929 12.523161 0.000000 0.000000 0.000000 4.268713 -0.408153 2.911661 0.841398 -0.322887 -1.877550 -10.056978 1.370830 4.799735 9.033666 -5.286033 -9.275989 0.000000 0.000000 0.000000 -0.037895 -14.494935 4.874609 -64.155466 -55.728764 26.336386 135.062111 -37.144985 -72.418734 0.000000 0.000000 0.000000 1.374076 5.529745 2.004429 84.162192 47.600523 34.160729 -150.133411 37.943085 -90.301797 0.000000 0.000000 0.000000 
0.002974 0.948842 -0.066414 0.947533 -0.738946 9.201381 5.169140 -0.663374 -11.039006 0.674218 -0.125046 1.333928 0.139205 4.405377 10.978365 0.000000 0.000000 0.000000 -5.690360 1.007120 -14.661999 -4.037785 0.741659 4.367111 0.170982 -4.960649 12.676214 0.000000 0.000000 0.000000 4.366863 -0.361004 2.416762 0.978783 -0.325649 -3.659215 -10.700271 3.102829 5.711315 10.815072 -5.544912 -13.468571 0.000000 0.000000 0.000000 -0.582859 -15.969372 5.314659 -68.738163 -56.193007 28.687510 134.521063 -37.503962 -72.942438 0.000000 0.000000 0.000000 1.770884 6.326443 2.370380 91.341952 48.959596 40.627481 -148.080405 41.135819 -91.058630 0.000000 0.000000 0.000000 
0.003208 0.948108 -0.061297 1.096572 -0.738739 9.129924 5.197904 -0.633246 -10.402805 0.289040 -0.064839 0.938388 0.164298 4.359026 10.697906 0.000000 0.000000 0.000000 -5.680502 0.990684 -14.353128 -4.360661 0.803302 4.569312 0.075826 -4.982296 12.195874 0.000000 0.000000 0.000000 4.249668 -0.277381 1.458368 1.007790 -0.317497 -4.264135 -10.897011 3.478707 5.621973 11.006278 -4.963349 -16.502219 0.000000 0.000000 0.000000 -1.446866 -16.383248 5.443320 -73.328381 -56.697839 31.640140 133.225053 -37.803707 -72.038387 0.000000 0.000000 0.000000 1.699533 6.658544 2.511058 97.832670 50.515798 47.304556 -142.668912 42.911151 -85.323933 0.000000 0.000000 0.000000 
0.003709 0.948550 -0.056410 1.502144 -0.510056 9.583005 4.856134 -0.688926 -10.967239 0.079282 -0.059990 1.506263 0.059589 4.221234 10.732994 0.000000 0.000000 0.000000 -5.944268 0.945011 -13.863707 -4.744545 0.770135 3.500210 -0.031502 -5.189683 12.327116 0.000000 0.000000 0.000000 4.638233 -0.213240 0.341393 0.189714 0.031046 -4.338247 -11.473906 3.412583 4.159954 11.586423 -4.866273 -18.115264 0.000000 0.000000 0.000000 -1.354292 -15.426899 5.071775 -73.254619 -58.193020 32.926393 127.087330 -36.796955 -63.954700 0.000000 0.000000 0.000000 1.393396 6.008799 2.262438 101.715535 52.095991 52.609817 -134.200914 42.046869 -72.790755 0.000000 0.000000 0.000000 
0.004516 0.950141 -0.051464 1.887352 1.263788 9.933883 4.800470 -0.753257 -11.555415 -0.385951 -0.017357 1.832688 -0.870796 2.958764 11.020898 0.000000 0.000000 0.000000 -6.391881 0.852701 -13.465829 -4.563192 0.750345 3.481803 -0.834205 -6.562611 12.769327 0.000000 0.000000 0.000000 4.204571 -0.089707 -1.116877 0.379399 -0.008533 -4.983520 -11.568949 3.073208 3.797211 11.863268 -5.240666 -16.792885 0.000000 0.000000 0.000000 -1.252261 -16.148683 5.275537 -65.088586 -61.165870 30.268101 120.688773 -32.739809 -52.264476 0.000000 0.000000 0.000000 1.741614 5.367878 2.053285 96.001965 54.875334 51.509724 -129.174120 39.022653 -61.811494 0.000000 0.000000 0.000000 
0.005741 0.952239 -0.046606 2.383336 2.374522 10.597032 4.052246 -0.863553 -12.252165 0.019522 -0.073088 1.989961 -1.523842 2.206480 11.559680 0.000000 0.000000 0.000000 -6.260101 0.829222 -13.113432 -5.733195 0.841484 2.686260 -1.283104 -7.430911 13.598458 0.000000 0.000000 0.000000 4.187012 -0.014400 -2.262187 0.497388 -0.046312 -4.926273 -11.864266 2.919639 2.004355 11.536212 -5.176007 -15.530561 0.000000 0.000000 0.000000 1.268027 -15.867978 5.163060 -52.862828 -64.715773 25.100996 115.074569 -25.571691 -38.464737 0.000000 0.000000 0.000000 -1.170826 4.600453 1.684881 85.097678 58.631924 47.681735 -124.901644 32.201365 -46.840571 0.000000 0.000000 0.000000 
0.006989 0.954171 -0.042113 2.827912 3.295099 10.801903 3.733701 -0.932706 -12.766983 -0.260730 -0.067583 2.742005 -2.067051 1.573130 11.946121 0.000000 0.000000 0.000000 -6.406846 0.779424 -12.620181 -6.278967 0.891276 2.422221 -1.667740 -8.121949 14.217331 0.000000 0.000000 0.000000 4.050432 0.022493 -2.803530 0.296410 0.108289 -6.568711 -11.069166 3.189737 2.758892 11.581870 -5.352261 -14.862318 0.000000 0.000000 0.000000 3.756600 -15.328733 5.040993 -29.405139 -66.865628 11.504760 111.348743 -15.856054 -23.254234 0.000000 0.000000 0.000000 -4.150987 3.316766 1.152127 64.286690 62.948402 36.763319 -121.504109 24.533266 -31.457062 0.000000 0.000000 0.000000 
0.007831 0.955085 -0.038683 3.119626 4.122959 11.435320 3.190695 -1.042245 -13.574649 0.210067 -0.142454 3.123499 -2.496375 1.061663 12.161918 0.000000 0.000000 0.000000 -6.598387 0.745966 -12.375686 -6.450700 0.841050 1.613490 -2.046820 -8.769336 14.742730 0.000000 0.000000 0.000000 4.475234 0.021444 -3.086057 -0.096628 0.304214 -7.464673 -11.060053 3.271933 2.166157 12.516409 -5.688206 -15.554030 0.000000 0.000000 0.000000 7.695233 -13.811563 4.783390 -9.311425 -67.943432 -0.881790 108.432213 -7.316012 -11.343177 0.000000 0.000000 0.000000 -7.942095 1.778438 0.596266 39.168233 63.638632 21.208570 -117.726434 14.115289 -12.960365 0.000000 0.000000 0.000000 
0.007783 0.955196 -0.036397 3.246678 4.689983 11.479733 3.233004 -1.115456 -14.488398 0.014334 -0.183301 4.734056 -2.690611 0.744434 12.016406 0.000000 0.000000 0.000000 -6.504077 0.734545 -12.222988 -6.719395 0.895779 1.818052 -2.342024 -9.214006 14.768921 0.000000 0.000000 0.000000 4.904819 -0.027798 -2.628258 -0.389438 0.460793 -8.640732 -11.067750 4.054997 2.025101 12.899298 -5.942767 -15.116485 0.000000 0.000000 0.000000 11.059657 -12.046044 4.627306 8.976135 -65.824272 -12.122106 104.005438 -0.118152 -2.284920 0.000000 0.000000 0.000000 -10.988273 -0.254030 -0.069941 19.990240 60.116826 9.265516 -112.241743 6.351561 0.164502 0.000000 0.000000 0.000000 
